HIERARCHY
ROOT Hips
{
	OFFSET 0.00 0.00 0.00
	CHANNELS 6 Xposition Yposition Zposition Yrotation Xrotation Zrotation
	JOINT Spine
	{
		OFFSET	0.0000	9.2263	1.5771
		CHANNELS 3 Xrotation Yrotation Zrotation
		JOINT Spine1
		{
			OFFSET	0.0000	16.2540	-0.1656
			CHANNELS 3 Xrotation Yrotation Zrotation
			JOINT Spine2
			{
				OFFSET	0.0000	13.6396	-1.2923
				CHANNELS 3 Xrotation Yrotation Zrotation
				JOINT Neck
				{
					OFFSET	0.0000	13.8774	-4.3542
					CHANNELS 3 Xrotation Yrotation Zrotation
					JOINT Neck1
					{
						OFFSET	0.0000	4.3400	0.9269
						CHANNELS 3 Xrotation Yrotation Zrotation
						JOINT Head
						{
							OFFSET	0.0000	4.0266	0.8585
							CHANNELS 3 Xrotation Yrotation Zrotation
							End Site
							{
								OFFSET 0.0000 23.0297 0.1231
							}
						}
					}
				}
				JOINT LeftShoulder
				{
					OFFSET	6.1442	10.1870	-3.7932
					CHANNELS 3 Zrotation Xrotation Yrotation
					JOINT LeftArm
					{
						OFFSET	12.3191	-1.1130	-1.7935
						CHANNELS 3 Zrotation Xrotation Yrotation
						JOINT LeftForeArm
						{
							OFFSET	27.6870	0.0000	0.0000
							CHANNELS 3 Xrotation Zrotation Yrotation
							JOINT LeftHand
							{
								OFFSET	27.8738	0.0000	0.0000
								CHANNELS 3 Zrotation Yrotation Xrotation
								JOINT LeftHandThumb1
								{
									OFFSET	2.3785	-1.0029	2.6209
									CHANNELS 3 Zrotation Xrotation Yrotation
									JOINT LeftHandThumb2
									{
										OFFSET	3.3624	-1.0029	2.8398
										CHANNELS 3 Zrotation Xrotation Yrotation
										JOINT LeftHandThumb3
										{
											OFFSET	4.5018	-1.3445	2.1783
											CHANNELS 3 Zrotation Xrotation Yrotation
											End Site
											{
												OFFSET 2.6000 -1.0000 1.0000
											}
										}
									}
								}
								JOINT LeftHandMiddle1
								{
									OFFSET	10.4639	0.6148	0.4298
									CHANNELS 3 Zrotation Xrotation Yrotation
									JOINT LeftHandMiddle2
									{
										OFFSET	5.7921	0.0000	0.0000
										CHANNELS 3 Zrotation Xrotation Yrotation
										JOINT LeftHandMiddle3
										{
											OFFSET	3.7132	0.0000	0.0000
											CHANNELS 3 Zrotation Xrotation Yrotation
											End Site
											{
												OFFSET 2.3000 0.0000 0.0000
											}
										}
									}
								}
								JOINT LeftHandIndex1
								{
									OFFSET	10.3945	0.6148	2.7055
									CHANNELS 3 Zrotation Xrotation Yrotation
									JOINT LeftHandIndex2
									{
										OFFSET	5.5493	0.0000	0.0000
										CHANNELS 3 Zrotation Xrotation Yrotation
										JOINT LeftHandIndex3
										{
											OFFSET	3.3911	0.0000	0.0000
											CHANNELS 3 Zrotation Xrotation Yrotation
											End Site
											{
												OFFSET 2.5000 0.0000 0.0000
											}
										}
									}
								}
								JOINT LeftHandRing1
								{
									OFFSET	10.3252	0.3211	-1.8755
									CHANNELS 3 Zrotation Xrotation Yrotation
									JOINT LeftHandRing2
									{
										OFFSET	5.4452	0.0000	0.0000
										CHANNELS 3 Zrotation Xrotation Yrotation
										JOINT LeftHandRing3
										{
											OFFSET	3.7132	0.0000	0.0000
											CHANNELS 3 Zrotation Xrotation Yrotation
											End Site
											{
												OFFSET 2.0000 0.0000 0.0000
											}
										}
									}
								}
								JOINT LeftHandPinky1
								{
									OFFSET	10.0130	-0.0783	-3.9671
									CHANNELS 3 Zrotation Xrotation Yrotation
									JOINT LeftHandPinky2
									{
										OFFSET	3.6763	0.0000	0.0000
										CHANNELS 3 Zrotation Xrotation Yrotation
										JOINT LeftHandPinky3
										{
											OFFSET	2.8113	0.0000	0.0000
											CHANNELS 3 Zrotation Xrotation Yrotation
											End Site
											{
												OFFSET 2.9000 0.0000 0.0000
											}
										}
									}
								}
							}
						}
					}
				}
				JOINT RightShoulder
				{
					OFFSET	-6.1402	10.1870	-3.7932
					CHANNELS 3 Zrotation Xrotation Yrotation
					JOINT RightArm
					{
						OFFSET	-12.3231	-1.1130	-1.7935
						CHANNELS 3 Zrotation Xrotation Yrotation
						JOINT RightForeArm
						{
							OFFSET	-27.6870	0.0000	0.0000
							CHANNELS 3 Xrotation Zrotation Yrotation
							JOINT RightHand
							{
								OFFSET	-27.8738	0.0000	0.0000
								CHANNELS 3 Zrotation Yrotation Xrotation
								JOINT RightHandThumb1
								{
									OFFSET	-2.5178	-0.9367	2.5137
									CHANNELS 3 Zrotation Xrotation Yrotation
									JOINT RightHandThumb2
									{
										OFFSET	-3.2638	-1.0870	2.9669
										CHANNELS 3 Zrotation Xrotation Yrotation
										JOINT RightHandThumb3
										{
											OFFSET	-4.4165	-1.3703	2.1350
											CHANNELS 3 Zrotation Xrotation Yrotation
											End Site
											{
												OFFSET -2.6000 -1.0000 1.0000
											}
										}
									}
								}
								JOINT RightHandIndex1
								{
									OFFSET	-10.4665	0.4896	2.7120
									CHANNELS 3 Zrotation Xrotation Yrotation
									JOINT RightHandIndex2
									{
										OFFSET	-5.3768	0.0000	0.0000
										CHANNELS 3 Zrotation Xrotation Yrotation
										JOINT RightHandIndex3
										{
											OFFSET	-3.3855	0.0000	0.0000
											CHANNELS 3 Zrotation Xrotation Yrotation
											End Site
											{
												OFFSET -2.6000 0.0000 0.0000
											}
										}
									}
								}
								JOINT RightHandMiddle1
								{
									OFFSET	-10.7596	0.4896	0.4278
									CHANNELS 3 Zrotation Xrotation Yrotation
									JOINT RightHandMiddle2
									{
										OFFSET	-5.6168	0.0000	0.0000
										CHANNELS 3 Zrotation Xrotation Yrotation
										JOINT RightHandMiddle3
										{
											OFFSET	-3.7364	0.0000	0.0000
											CHANNELS 3 Zrotation Xrotation Yrotation
											End Site
											{
												OFFSET -2.3000 0.0000 0.0000
											}
										}
									}
								}
								JOINT RightHandRing1
								{
									OFFSET	-10.4702	0.3879	-1.9363
									CHANNELS 3 Zrotation Xrotation Yrotation
									JOINT RightHandRing2
									{
										OFFSET	-5.4013	0.0000	0.0000
										CHANNELS 3 Zrotation Xrotation Yrotation
										JOINT RightHandRing3
										{
											OFFSET	-3.3916	0.0000	0.0000
											CHANNELS 3 Zrotation Xrotation Yrotation
											End Site
											{
												OFFSET -2.2000 0.0000 0.0000
											}
										}
									}
								}
								JOINT RightHandPinky1
								{
									OFFSET	-9.9715	-0.1191	-3.9540
									CHANNELS 3 Zrotation Xrotation Yrotation
									JOINT RightHandPinky2
									{
										OFFSET	-3.6528	0.0000	0.0000
										CHANNELS 3 Zrotation Xrotation Yrotation
										JOINT RightHandPinky3
										{
											OFFSET	-2.7820	0.0000	0.0000
											CHANNELS 3 Zrotation Xrotation Yrotation
											End Site
											{
												OFFSET -2.9000 0.0000 0.0000
											}
										}
									}
								}
							}
						}
					}
				}
			}
		}
	}
	JOINT LeftUpLeg
	{
		OFFSET	9.6338	-3.2733	0.0000
		CHANNELS 3 Xrotation Yrotation Zrotation
		JOINT LeftLeg
		{
			OFFSET	0.0000	-41.7300	-1.7300
			CHANNELS 3 Xrotation Yrotation Zrotation
			JOINT LeftFoot
			{
				OFFSET	0.0126	-39.1900	-0.8477
				CHANNELS 3 Xrotation Yrotation Zrotation
				JOINT LeftToeBase
				{
					OFFSET	-0.1833	-12.1931	8.2823
					CHANNELS 3 Xrotation Yrotation Zrotation
					End Site
					{
						OFFSET 0.0000 0.0000 10.1681
					}
				}
			}
		}
	}
	JOINT RightUpLeg
	{
		OFFSET	-9.6338	-3.2733	0.0000
		CHANNELS 3 Xrotation Yrotation Zrotation
		JOINT RightLeg
		{
			OFFSET	0.0000	-41.7300	-1.7300
			CHANNELS 3 Xrotation Yrotation Zrotation
			JOINT RightFoot
			{
				OFFSET	0.0126	-39.1900	-0.8477
				CHANNELS 3 Xrotation Yrotation Zrotation
				JOINT RightToeBase
				{
					OFFSET	-0.1833	-12.1931	8.2823
					CHANNELS 3 Xrotation Yrotation Zrotation
					End Site
					{
						OFFSET 0.0032 0.0000 10.1681
					}
				}
			}
		}
	}
}
MOTION
Frames: 9
Frame Time: 0.0333333
-0.7610 87.8967 -1.4606 -28.6650 3.7453 -5.4221 0.8205 3.0547 4.1612 3.3825 7.4714 2.8509 3.5431 7.5324 2.4964 7.2624 1.9441 1.3642 -0.0000 0.0000 -0.0000 -8.3922 16.9875 -9.2089 -3.3214 2.4234 -17.6898 -39.7474 -51.3324 -33.2560 0.0000 -0.0000 -136.9590 -10.3473 7.5750 -31.9795 -12.1358 12.7344 10.0837 -19.1479 17.8982 34.2013 -4.6650 4.9853 17.0739 -46.2641 1.3867 -0.7997 -45.6201 -0.3052 0.7256 -22.8024 -0.0793 0.3934 -46.2802 1.3869 -0.7990 -45.6040 -0.3050 0.7254 -22.8024 -0.0793 0.3935 -46.2802 1.3869 -0.7990 -45.6040 -0.3050 0.7254 -22.8024 -0.0793 0.3935 -46.1870 1.3889 3.2839 -45.6396 2.6155 -2.1320 -22.8024 -0.0793 0.3935 6.3579 2.7985 16.1849 58.3683 -14.5212 49.2840 0.0000 0.0000 116.3412 -1.5119 -4.9311 -7.0357 15.0264 9.6560 -20.2081 0.1058 6.1828 -25.2895 -5.7888 0.9845 -11.3065 43.6678 0.9025 -0.0415 53.1168 -0.9135 -1.8275 26.5614 -0.2411 -1.0215 43.6678 0.9025 -0.0415 53.1168 -0.9135 -1.8275 26.5614 -0.2411 -1.0215 43.6678 0.9025 -0.0415 53.1168 -0.9135 -1.8275 26.5614 -0.2411 -1.0215 43.6678 0.9025 -0.0415 53.1168 -0.9135 -1.8275 26.5614 -0.2411 -1.0215 -34.4657 -0.6006 26.9049 35.9669 2.5383 0.1853 -2.3032 1.4470 -18.2720 -0.6934 -0.0000 -0.0000 -19.3719 -6.5940 -12.4716 39.7640 -0.3976 -0.2175 -20.0532 -10.1341 16.1891 -0.0012 0.0000 -0.0000 
-0.7784 87.6763 -1.5931 -27.7271 3.8661 -5.5898 0.7548 3.1170 3.9511 3.3441 7.5837 2.5297 3.5064 7.6386 2.1484 7.4690 1.8987 1.3475 -0.0000 0.0000 -0.0000 -8.3144 16.8056 -9.0518 -3.4820 2.4728 -17.7494 -39.6257 -49.8972 -34.8227 0.0000 0.0000 -136.0210 -9.9279 7.3271 -30.6606 -12.1358 12.7344 10.0837 -19.1479 17.8982 34.2013 -4.6650 4.9853 17.0739 -46.2641 1.3867 -0.7997 -45.6201 -0.3052 0.7256 -22.8024 -0.0793 0.3935 -46.2802 1.3869 -0.7990 -45.6040 -0.3050 0.7254 -22.8024 -0.0793 0.3935 -46.2802 1.3869 -0.7990 -45.6040 -0.3050 0.7254 -22.8024 -0.0793 0.3935 -46.1870 1.3889 3.2839 -45.6395 2.6155 -2.1320 -22.8024 -0.0793 0.3935 6.2983 2.8035 16.3026 59.0596 -15.0086 49.4100 0.0000 0.0000 116.1386 -1.2857 -4.9546 -7.4490 15.0264 9.6560 -20.2081 0.1058 6.1827 -25.2895 -5.7888 0.9845 -11.3065 43.6679 0.9025 -0.0415 53.1168 -0.9135 -1.8275 26.5614 -0.2411 -1.0215 43.6679 0.9025 -0.0415 53.1168 -0.9135 -1.8275 26.5614 -0.2411 -1.0215 43.6679 0.9025 -0.0415 53.1168 -0.9135 -1.8275 26.5614 -0.2411 -1.0215 43.6679 0.9025 -0.0415 53.1168 -0.9135 -1.8275 26.5614 -0.2411 -1.0215 -35.6612 -1.0775 26.8074 37.1454 3.1251 0.1643 -2.2979 1.0821 -18.0162 -0.4104 -0.0000 0.0000 -19.6170 -6.5524 -12.2135 40.7443 -0.1354 -0.2700 -20.6970 -11.1851 16.0983 -0.0017 0.0000 0.0000 
-0.7444 86.6214 -2.0247 -27.0155 4.2884 -6.0274 0.7894 3.2276 4.0461 3.5416 7.7162 2.1967 3.6991 7.7692 1.7827 7.6289 1.7430 1.1916 -0.0000 0.0000 -0.0000 -8.5112 16.1107 -9.3419 -3.9679 2.5063 -17.3020 -39.6419 -47.6808 -35.8229 0.0000 -0.0000 -136.6275 -9.3483 7.3519 -30.0503 -12.1358 12.7344 10.0837 -19.1479 17.8982 34.2013 -4.6650 4.9854 17.0739 -46.2641 1.3867 -0.7997 -45.6201 -0.3052 0.7256 -22.8024 -0.0793 0.3935 -46.2802 1.3869 -0.7990 -45.6040 -0.3050 0.7254 -22.8024 -0.0793 0.3935 -46.2802 1.3869 -0.7990 -45.6040 -0.3050 0.7254 -22.8024 -0.0793 0.3935 -46.1870 1.3889 3.2839 -45.6395 2.6155 -2.1320 -22.8024 -0.0793 0.3935 5.2348 2.6059 16.2534 60.5192 -15.5018 49.7930 0.0000 0.0000 116.4910 -0.9815 -4.9449 -8.0391 15.0264 9.6560 -20.2081 0.1058 6.1828 -25.2895 -5.7888 0.9845 -11.3065 43.6679 0.9025 -0.0416 53.1169 -0.9135 -1.8275 26.5614 -0.2411 -1.0215 43.6679 0.9025 -0.0416 53.1169 -0.9135 -1.8275 26.5614 -0.2411 -1.0215 43.6679 0.9025 -0.0416 53.1169 -0.9135 -1.8275 26.5614 -0.2411 -1.0215 43.6679 0.9025 -0.0416 53.1169 -0.9135 -1.8275 26.5614 -0.2411 -1.0215 -38.5528 -2.0842 27.4722 40.7122 1.5687 0.0863 -3.7015 0.8561 -17.9308 -0.5392 0.0000 -0.0000 -21.7949 -6.4755 -12.1410 44.6458 -0.0816 -0.0813 -22.6205 -11.6872 16.0110 -0.0027 0.0000 -0.0000 
-0.7100 84.7953 -2.6355 -26.3777 4.4656 -6.3847 0.9407 3.6028 4.2229 4.0636 8.4884 1.8579 4.2206 8.5354 1.3586 7.8413 1.5046 1.2084 -0.0000 0.0000 -0.0000 -9.5933 15.0253 -9.2462 -4.8558 2.6923 -17.5428 -41.0949 -42.5861 -37.1761 -0.0000 -0.0000 -137.8159 -8.8273 7.6741 -29.8519 -12.1358 12.7344 10.0837 -19.1479 17.8982 34.2013 -4.6650 4.9854 17.0739 -46.2641 1.3867 -0.7997 -45.6201 -0.3052 0.7256 -22.8024 -0.0793 0.3935 -46.2802 1.3869 -0.7990 -45.6040 -0.3050 0.7254 -22.8024 -0.0793 0.3935 -46.2802 1.3869 -0.7990 -45.6040 -0.3050 0.7254 -22.8024 -0.0793 0.3935 -46.1870 1.3889 3.2839 -45.6396 2.6155 -2.1320 -22.8024 -0.0793 0.3935 4.8370 2.4849 15.8803 61.0385 -16.2102 49.9804 0.0000 0.0000 117.2833 -0.7787 -4.9344 -8.4444 15.0264 9.6560 -20.2081 0.1058 6.1827 -25.2895 -5.7888 0.9845 -11.3065 43.6679 0.9025 -0.0415 53.1168 -0.9135 -1.8275 26.5614 -0.2411 -1.0215 43.6679 0.9025 -0.0415 53.1168 -0.9135 -1.8275 26.5614 -0.2411 -1.0215 43.6679 0.9025 -0.0415 53.1168 -0.9135 -1.8275 26.5614 -0.2411 -1.0215 43.6679 0.9025 -0.0415 53.1168 -0.9135 -1.8275 26.5614 -0.2411 -1.0215 -42.3434 -3.6833 28.3525 46.4293 -0.5754 -0.1380 -6.0580 0.6111 -17.8483 -1.3190 0.0000 0.0000 -25.2746 -6.6824 -12.9194 51.2443 -0.3774 0.3706 -25.5280 -10.9325 16.1604 -0.2320 -0.0000 -0.0000 
-0.4376 82.7988 -3.1523 -27.7587 5.0722 -5.9241 1.0143 4.3373 4.2939 4.3735 10.0947 1.3385 4.5054 10.1308 0.7228 7.9556 1.3545 1.3681 -0.0000 0.0000 -0.0000 -10.7340 14.6589 -9.5260 -6.0689 2.8966 -17.3595 -40.7371 -36.9467 -37.3332 -0.0000 -0.0000 -137.8465 -8.0038 7.4838 -28.2960 -12.1358 12.7344 10.0837 -19.1479 17.8982 34.2013 -4.6650 4.9853 17.0739 -46.2641 1.3867 -0.7997 -45.6201 -0.3052 0.7256 -22.8024 -0.0793 0.3934 -46.2802 1.3869 -0.7990 -45.6040 -0.3050 0.7254 -22.8024 -0.0793 0.3935 -46.2802 1.3869 -0.7990 -45.6040 -0.3050 0.7254 -22.8024 -0.0793 0.3935 -46.1870 1.3889 3.2839 -45.6395 2.6155 -2.1320 -22.8024 -0.0793 0.3935 5.3810 2.5751 15.7961 61.1162 -16.2138 50.3458 -0.0000 0.0000 117.0054 -0.7440 -4.9575 -8.4637 15.0265 9.6560 -20.2081 0.1058 6.1828 -25.2895 -5.7888 0.9845 -11.3065 43.6679 0.9025 -0.0416 53.1168 -0.9135 -1.8275 26.5614 -0.2411 -1.0215 43.6679 0.9025 -0.0416 53.1168 -0.9135 -1.8275 26.5614 -0.2411 -1.0215 43.6679 0.9025 -0.0416 53.1168 -0.9135 -1.8275 26.5614 -0.2411 -1.0215 43.6679 0.9025 -0.0416 53.1168 -0.9135 -1.8275 26.5614 -0.2411 -1.0215 -45.5463 -5.1288 28.6220 52.2888 -0.9323 -0.3280 -8.6805 1.0789 -18.0791 -1.8487 -0.0000 0.0000 -30.4288 -6.0430 -15.0320 58.2981 -0.6531 0.9000 -27.5041 -8.1010 16.6780 -1.0779 0.0000 -0.0000 
0.2913 81.5536 -3.2528 -35.5826 6.3670 -5.1220 0.9490 5.1121 4.1056 4.2017 11.8828 0.9510 4.2776 11.9188 0.2806 7.7960 1.8259 0.8183 -0.0000 0.0000 -0.0000 -10.9247 17.5402 -11.3433 -7.6933 2.8842 -15.2969 -35.4662 -36.7213 -31.7877 0.0000 -0.0000 -136.8829 -7.8521 6.5906 -27.0644 -12.1358 12.7344 10.0837 -19.1479 17.8982 34.2013 -4.6650 4.9853 17.0739 -46.2641 1.3867 -0.7997 -45.6201 -0.3052 0.7256 -22.8024 -0.0793 0.3935 -46.2802 1.3869 -0.7990 -45.6040 -0.3050 0.7254 -22.8024 -0.0793 0.3934 -46.2802 1.3869 -0.7990 -45.6040 -0.3050 0.7254 -22.8024 -0.0793 0.3934 -46.1870 1.3889 3.2839 -45.6396 2.6155 -2.1320 -22.8024 -0.0793 0.3934 5.0119 2.7040 17.2081 61.4595 -13.3879 51.2860 0.0000 -0.0000 115.1322 -1.1511 -5.0156 -7.5164 15.0264 9.6560 -20.2081 0.1058 6.1827 -25.2895 -5.7888 0.9845 -11.3065 43.6678 0.9025 -0.0415 53.1168 -0.9135 -1.8275 26.5614 -0.2411 -1.0215 43.6678 0.9025 -0.0415 53.1168 -0.9135 -1.8275 26.5614 -0.2411 -1.0215 43.6678 0.9025 -0.0415 53.1168 -0.9135 -1.8275 26.5614 -0.2411 -1.0215 43.6678 0.9025 -0.0415 53.1168 -0.9135 -1.8275 26.5614 -0.2411 -1.0215 -45.8438 -4.6189 29.8455 56.7784 1.6369 -0.0878 -11.7317 3.9514 -19.8795 -2.4415 -0.0000 -0.0000 -37.0757 -3.0925 -16.4710 62.2189 -0.6349 1.2528 -27.2134 -1.6861 16.8348 -1.7749 -0.0000 -0.0002 
1.2265 81.3804 -2.7695 -47.4590 7.3141 -5.0006 0.9144 5.2618 3.8953 3.9673 12.4841 1.1452 4.0087 12.5340 0.4971 7.8594 2.8346 -0.3917 -0.0000 0.0000 -0.0000 -10.4195 22.9692 -14.0489 -8.7699 2.4411 -11.4794 -26.8246 -39.9771 -21.7310 0.0000 -0.0000 -133.1021 -7.5720 4.9589 -23.8747 -12.1358 12.7344 10.0837 -19.1479 17.8982 34.2013 -4.6650 4.9853 17.0739 -46.2641 1.3867 -0.7997 -45.6201 -0.3052 0.7256 -22.8024 -0.0793 0.3934 -46.2802 1.3869 -0.7990 -45.6040 -0.3050 0.7254 -22.8024 -0.0793 0.3934 -46.2802 1.3869 -0.7990 -45.6040 -0.3050 0.7254 -22.8024 -0.0793 0.3934 -46.1870 1.3889 3.2839 -45.6395 2.6155 -2.1320 -22.8024 -0.0794 0.3934 3.9469 2.7564 19.2581 60.1774 -8.5021 51.6753 -0.0000 -0.0000 113.1351 -2.2121 -5.0338 -5.4264 15.0264 9.6560 -20.2081 0.1058 6.1827 -25.2895 -5.7888 0.9845 -11.3065 43.6679 0.9025 -0.0415 53.1168 -0.9135 -1.8275 26.5614 -0.2411 -1.0215 43.6679 0.9025 -0.0415 53.1168 -0.9135 -1.8275 26.5614 -0.2411 -1.0215 43.6679 0.9025 -0.0415 53.1168 -0.9135 -1.8275 26.5614 -0.2411 -1.0215 43.6679 0.9025 -0.0415 53.1168 -0.9135 -1.8275 26.5614 -0.2411 -1.0215 -42.8501 -2.5816 31.3584 59.3170 5.5964 0.6204 -14.3122 9.0024 -21.5752 -2.9360 -0.0000 0.0000 -42.8443 -0.4674 -15.8758 61.8703 1.4646 1.2091 -24.8324 5.7933 15.7102 -1.4831 -0.0000 -0.0005 
1.5550 81.6770 -2.1537 -60.7162 7.7090 -6.2541 0.8835 4.3567 4.4163 3.5764 10.6185 2.7553 3.6260 10.6997 2.2689 8.6551 4.7223 -2.3959 -0.0000 0.0000 -0.0000 -8.1193 29.8740 -17.6830 -7.5187 1.8215 -7.8154 -10.7949 -44.3571 -0.0800 -0.0000 -0.0000 -122.7131 -4.8612 3.3958 -16.2929 -12.1358 12.7344 10.0837 -19.1479 17.8982 34.2013 -4.6650 4.9853 17.0739 -46.2641 1.3867 -0.7997 -45.6201 -0.3052 0.7256 -22.8024 -0.0793 0.3935 -46.2802 1.3869 -0.7990 -45.6040 -0.3050 0.7254 -22.8024 -0.0793 0.3935 -46.2802 1.3869 -0.7990 -45.6040 -0.3050 0.7254 -22.8024 -0.0793 0.3935 -46.1870 1.3889 3.2839 -45.6395 2.6155 -2.1320 -22.8024 -0.0793 0.3935 2.3632 2.5679 20.6107 55.8309 -2.8491 51.2044 -0.0000 0.0000 110.4826 -3.9866 -4.9208 -2.2854 15.0265 9.6560 -20.2081 0.1058 6.1827 -25.2895 -5.7888 0.9845 -11.3065 43.6679 0.9025 -0.0416 53.1168 -0.9135 -1.8275 26.5614 -0.2411 -1.0215 43.6679 0.9025 -0.0416 53.1168 -0.9135 -1.8275 26.5614 -0.2411 -1.0215 43.6679 0.9025 -0.0416 53.1168 -0.9135 -1.8275 26.5614 -0.2411 -1.0215 43.6679 0.9025 -0.0416 53.1168 -0.9135 -1.8275 26.5614 -0.2411 -1.0215 -37.2101 -0.4375 32.7929 59.9989 6.5399 1.3371 -16.6682 17.2937 -22.1489 -2.3973 -0.0000 -0.0000 -46.7762 -0.2101 -12.7262 58.7024 6.4220 0.9168 -22.1618 12.1910 13.1534 -0.4980 -0.0000 -0.0001 
1.3315 81.7092 -1.9750 -70.7556 7.3840 -8.7335 1.0008 2.5162 5.4688 3.2679 6.5900 5.1343 3.3275 6.7015 4.8776 9.5877 6.8071 -3.6050 -0.0000 0.0000 -0.0000 -4.7381 35.1685 -21.8208 -4.0477 1.2654 -6.5039 6.5092 -37.5268 22.9363 0.0000 0.0000 -100.9421 -2.3759 2.3724 -7.4763 -12.1358 12.7344 10.0837 -19.1479 17.8982 34.2013 -4.6650 4.9853 17.0739 -46.2641 1.3867 -0.7997 -45.6201 -0.3052 0.7256 -22.8024 -0.0793 0.3934 -46.2802 1.3869 -0.7990 -45.6040 -0.3050 0.7254 -22.8024 -0.0793 0.3935 -46.2802 1.3869 -0.7990 -45.6040 -0.3050 0.7254 -22.8024 -0.0793 0.3935 -46.1870 1.3889 3.2839 -45.6396 2.6155 -2.1320 -22.8024 -0.0793 0.3934 1.9485 2.4065 19.7401 49.9190 1.1123 51.0620 0.0000 0.0000 107.8945 -5.5869 -4.6439 0.4940 15.0264 9.6560 -20.2081 0.1058 6.1828 -25.2895 -5.7888 0.9845 -11.3065 43.6678 0.9025 -0.0416 53.1168 -0.9135 -1.8275 26.5614 -0.2411 -1.0215 43.6678 0.9025 -0.0416 53.1168 -0.9135 -1.8275 26.5614 -0.2411 -1.0215 43.6678 0.9025 -0.0416 53.1168 -0.9135 -1.8275 26.5614 -0.2411 -1.0215 43.6678 0.9025 -0.0416 53.1168 -0.9135 -1.8275 26.5614 -0.2411 -1.0215 -32.0175 0.9654 35.2582 60.0574 6.8468 1.5118 -19.6194 21.0344 -21.8782 -1.2107 0.0000 0.0000 -48.8263 -1.3320 -8.5689 56.3378 7.9601 1.0591 -19.3617 19.0798 11.7683 -0.4492 0.0000 0.0000 
